<svg preserveAspectRatio="none" width="100%" height="100%" overflow="visible" style="display: block;" viewBox="0 0 110 14" fill="none" xmlns="http://www.w3.org/2000/svg">
<g id="&#208;&#159;&#208;&#160;&#208;&#158;&#208;&#146;&#208;&#149;&#208;&#160;&#208;&#149;&#208;&#157;&#208;&#158;" filter="url(#filter0_di_2349_109533)">
<path d="M1.43667 13.05C0.896667 13.05 0.506667 12.894 0.266667 12.582C0.0266666 12.27 -0.0513333 11.82 0.0326667 11.232L1.52667 1.782C1.61067 1.254 1.80867 0.858 2.12067 0.594C2.43267 0.33 2.85267 0.198 3.38067 0.198H11.6247C12.2127 0.198 12.6447 0.36 12.9207 0.684C13.1967 0.996 13.2867 1.446 13.1907 2.034L11.6967 11.484C11.6247 12 11.4327 12.39 11.1207 12.654C10.8087 12.918 10.3947 13.05 9.87867 13.05C9.33867 13.05 8.94267 12.894 8.69067 12.582C8.43867 12.258 8.35467 11.802 8.43867 11.214L9.77067 2.898H4.65867L3.30867 11.484C3.22467 12 3.02667 12.39 2.71467 12.654C2.41467 12.918 1.98867 13.05 1.43667 13.05Z" fill="url(#paint0_linear_2349_109533)"/>
<path d="M14.726 13.05C14.198 13.05 13.814 12.882 13.574 12.546C13.334 12.21 13.262 11.736 13.358 11.124L14.834 1.836C14.918 1.284 15.122 0.876 15.446 0.612C15.77 0.336 16.202 0.198 16.742 0.198H20.45C21.986 0.198 23.132 0.528 23.888 1.188C24.656 1.836 25.04 2.73 25.04 3.87C25.04 5.358 24.59 6.504 23.69 7.308C22.79 8.112 21.476 8.514 19.748 8.514H17.084L16.616 11.412C16.532 11.964 16.328 12.378 16.004 12.654C15.692 12.918 15.266 13.05 14.726 13.05ZM17.48 5.976H19.874C20.534 5.976 21.032 5.82 21.368 5.508C21.716 5.196 21.89 4.746 21.89 4.158C21.89 3.666 21.734 3.306 21.422 3.078C21.122 2.85 20.648 2.736 20 2.736H17.984L17.48 5.976Z" fill="url(#paint1_linear_2349_109533)"/>
<path d="M31.0163 13.086C29.8043 13.086 28.7483 12.864 27.8483 12.42C26.9483 11.964 26.2463 11.316 25.7423 10.476C25.2503 9.624 25.0043 8.598 25.0043 7.398C25.0043 6.306 25.1663 5.31 25.4903 4.41C25.8263 3.498 26.2943 2.712 26.8943 2.052C27.5063 1.392 28.2323 0.888 29.0723 0.539999C29.9243 0.18 30.8663 0 31.8983 0C33.1223 0 34.1843 0.228 35.0843 0.684C35.9843 1.128 36.6803 1.776 37.1723 2.628C37.6643 3.468 37.9103 4.482 37.9103 5.67C37.9103 6.774 37.7483 7.782 37.4243 8.694C37.1003 9.594 36.6323 10.374 36.0203 11.034C35.4083 11.694 34.6763 12.204 33.8243 12.564C32.9843 12.912 32.0483 13.086 31.0163 13.086ZM31.0523 10.314C31.7843 10.314 32.4023 10.122 32.9063 9.738C33.4103 9.354 33.8003 8.82 34.0763 8.136C34.3523 7.44 34.4903 6.642 34.4903 5.742C34.4903 4.734 34.2503 3.99 33.7703 3.51C33.3023 3.018 32.6603 2.772 31.8443 2.772C31.1363 2.772 30.5243 2.964 30.0083 3.348C29.5043 3.732 29.1143 4.266 28.8383 4.95C28.5743 5.634 28.4423 6.432 28.4423 7.344C28.4423 8.34 28.6763 9.084 29.1443 9.576C29.6123 10.068 30.2483 10.314 31.0523 10.314Z" fill="url(#paint2_linear_2349_109533)"/>
<path d="M40.0098 12.888C39.4338 12.888 39.0018 12.726 38.7138 12.402C38.4378 12.078 38.3478 11.628 38.4438 11.052L39.9018 1.782C39.9858 1.254 40.1838 0.858 40.4958 0.594C40.8078 0.33 41.2278 0.198 41.7558 0.198H45.8778C46.8738 0.198 47.6778 0.336 48.2898 0.612C48.9018 0.876 49.3458 1.242 49.6218 1.71C49.8978 2.166 50.0358 2.682 50.0358 3.258C50.0358 4.146 49.7538 4.872 49.1898 5.436C48.6258 6 47.8878 6.36 46.9758 6.516V6.21C47.7558 6.366 48.3618 6.702 48.7938 7.218C49.2378 7.722 49.4598 8.346 49.4598 9.09C49.4598 10.314 49.0278 11.256 48.1638 11.916C47.2998 12.564 46.1358 12.888 44.6718 12.888H40.0098ZM41.6838 10.458H44.4738C45.0978 10.458 45.5598 10.32 45.8598 10.044C46.1598 9.768 46.3098 9.378 46.3098 8.874C46.3098 8.466 46.1718 8.166 45.8958 7.974C45.6198 7.77 45.2238 7.668 44.7078 7.668H42.1338L41.6838 10.458ZM42.5118 5.238H44.9418C45.5778 5.238 46.0578 5.106 46.3818 4.842C46.7178 4.578 46.8858 4.188 46.8858 3.672C46.8858 3.336 46.7598 3.078 46.5078 2.898C46.2678 2.718 45.8718 2.628 45.3198 2.628H42.9258L42.5118 5.238Z" fill="url(#paint3_linear_2349_109533)"/>
<path d="M51.9465 12.888C51.3465 12.888 50.9085 12.732 50.6325 12.42C50.3565 12.096 50.2665 11.64 50.3625 11.052L51.8205 1.782C51.9045 1.254 52.1025 0.858 52.4145 0.594C52.7265 0.33 53.1465 0.198 53.6745 0.198H59.6865C60.1185 0.198 60.4485 0.288 60.6765 0.467999C60.9045 0.648 61.0185 0.906 61.0185 1.242C61.0185 1.71 60.8805 2.082 60.6045 2.358C60.3405 2.622 59.9745 2.754 59.5065 2.754H54.8265L54.4485 5.166H58.4985C58.9305 5.166 59.2605 5.256 59.4885 5.436C59.7165 5.616 59.8305 5.874 59.8305 6.21C59.8305 6.678 59.6925 7.05 59.4165 7.326C59.1405 7.59 58.7745 7.722 58.3185 7.722H54.0345L53.6205 10.332H58.0665C58.4985 10.332 58.8285 10.422 59.0565 10.602C59.2845 10.782 59.3985 11.04 59.3985 11.376C59.3985 11.844 59.2605 12.216 58.9845 12.492C58.7205 12.756 58.3605 12.888 57.9045 12.888H51.9465Z" fill="url(#paint4_linear_2349_109533)"/>
<path d="M62.0491 13.05C61.5211 13.05 61.1371 12.882 60.8971 12.546C60.6571 12.21 60.5851 11.736 60.6811 11.124L62.1571 1.836C62.2411 1.284 62.4451 0.876 62.7691 0.612C63.0931 0.336 63.5251 0.198 64.0651 0.198H67.7731C69.3091 0.198 70.4551 0.528 71.2111 1.188C71.9791 1.836 72.3631 2.73 72.3631 3.87C72.3631 5.358 71.9131 6.504 71.0131 7.308C70.1131 8.112 68.7991 8.514 67.0711 8.514H64.4071L63.9391 11.412C63.8551 11.964 63.6511 12.378 63.3271 12.654C63.0151 12.918 62.5891 13.05 62.0491 13.05ZM64.8031 5.976H67.1971C67.8571 5.976 68.3551 5.82 68.6911 5.508C69.0391 5.196 69.2131 4.746 69.2131 4.158C69.2131 3.666 69.0571 3.306 68.7451 3.078C68.4451 2.85 67.9711 2.736 67.3231 2.736H65.3071L64.8031 5.976Z" fill="url(#paint5_linear_2349_109533)"/>
<path d="M73.7272 12.888C73.1272 12.888 72.6892 12.732 72.4132 12.42C72.1372 12.096 72.0472 11.64 72.1432 11.052L73.6012 1.782C73.6852 1.254 73.8832 0.858 74.1952 0.594C74.5072 0.33 74.9272 0.198 75.4552 0.198H81.4672C81.8992 0.198 82.2292 0.288 82.4572 0.467999C82.6852 0.648 82.7992 0.906 82.7992 1.242C82.7992 1.71 82.6612 2.082 82.3852 2.358C82.1212 2.622 81.7552 2.754 81.2872 2.754H76.6072L76.2292 5.166H80.2792C80.7112 5.166 81.0412 5.256 81.2692 5.436C81.4972 5.616 81.6112 5.874 81.6112 6.21C81.6112 6.678 81.4732 7.05 81.1972 7.326C80.9212 7.59 80.5552 7.722 80.0992 7.722H75.8152L75.4012 10.332H79.8472C80.2792 10.332 80.6092 10.422 80.8372 10.602C81.0652 10.782 81.1792 11.04 81.1792 11.376C81.1792 11.844 81.0412 12.216 80.7652 12.492C80.5012 12.756 80.1412 12.888 79.6852 12.888H73.7272Z" fill="url(#paint6_linear_2349_109533)"/>
<path d="M83.8478 13.05C83.2958 13.05 82.8998 12.882 82.6598 12.546C82.4198 12.21 82.3538 11.73 82.4618 11.106L83.9558 1.674C84.0398 1.122 84.2378 0.714 84.5498 0.45C84.8618 0.174 85.2878 0.0359995 85.8278 0.0359995C86.3918 0.0359995 86.7878 0.209999 87.0158 0.557999C87.2558 0.894 87.3218 1.368 87.2138 1.98L86.7278 5.094H91.9478L92.5058 1.674C92.5898 1.122 92.7818 0.714 93.0818 0.45C93.3938 0.174 93.8198 0.0359995 94.3598 0.0359995C94.9238 0.0359995 95.3198 0.204 95.5478 0.539999C95.7878 0.875999 95.8538 1.356 95.7458 1.98L94.2518 11.394C94.1678 11.958 93.9698 12.378 93.6578 12.654C93.3578 12.918 92.9378 13.05 92.3978 13.05C91.8338 13.05 91.4378 12.882 91.2098 12.546C90.9818 12.198 90.9158 11.718 91.0118 11.106L91.5158 7.812H86.2958L85.7198 11.394C85.6358 11.958 85.4378 12.378 85.1258 12.654C84.8258 12.918 84.3998 13.05 83.8478 13.05Z" fill="url(#paint7_linear_2349_109533)"/>
<path d="M102.282 13.086C101.07 13.086 100.014 12.864 99.1142 12.42C98.2142 11.964 97.5122 11.316 97.0082 10.476C96.5162 9.624 96.2702 8.598 96.2702 7.398C96.2702 6.306 96.4322 5.31 96.7562 4.41C97.0922 3.498 97.5602 2.712 98.1602 2.052C98.7722 1.392 99.4982 0.888 100.338 0.539999C101.19 0.18 102.132 0 103.164 0C104.388 0 105.45 0.228 106.35 0.684C107.25 1.128 107.946 1.776 108.438 2.628C108.93 3.468 109.176 4.482 109.176 5.67C109.176 6.774 109.014 7.782 108.69 8.694C108.366 9.594 107.898 10.374 107.286 11.034C106.674 11.694 105.942 12.204 105.09 12.564C104.25 12.912 103.314 13.086 102.282 13.086ZM102.318 10.314C103.05 10.314 103.668 10.122 104.172 9.738C104.676 9.354 105.066 8.82 105.342 8.136C105.618 7.44 105.756 6.642 105.756 5.742C105.756 4.734 105.516 3.99 105.036 3.51C104.568 3.018 103.926 2.772 103.11 2.772C102.402 2.772 101.79 2.964 101.274 3.348C100.77 3.732 100.38 4.266 100.104 4.95C99.8402 5.634 99.7082 6.432 99.7082 7.344C99.7082 8.34 99.9422 9.084 100.41 9.576C100.878 10.068 101.514 10.314 102.318 10.314Z" fill="url(#paint8_linear_2349_109533)"/>
</g>
<defs>
<filter id="filter0_di_2349_109533" x="-2.09402e-09" y="0" width="109.676" height="17.086" filterUnits="userSpaceOnUse" color-interpolation-filters="sRGB">
<feFlood flood-opacity="0" result="BackgroundImageFix"/>
<feColorMatrix in="SourceAlpha" type="matrix" values="0 0 0 0 0 0 0 0 0 0 0 0 0 0 0 0 0 0 127 0" result="hardAlpha"/>
<feOffset dx="0.3" dy="0.5"/>
<feGaussianBlur stdDeviation="0.1"/>
<feComposite in2="hardAlpha" operator="out"/>
<feColorMatrix type="matrix" values="0 0 0 0 0.313245 0 0 0 0 0.337515 0 0 0 0 0.361785 0 0 0 1 0"/>
<feBlend mode="normal" in2="BackgroundImageFix" result="effect1_dropShadow_2349_109533"/>
<feBlend mode="normal" in="SourceGraphic" in2="effect1_dropShadow_2349_109533" result="shape"/>
<feColorMatrix in="SourceAlpha" type="matrix" values="0 0 0 0 0 0 0 0 0 0 0 0 0 0 0 0 0 0 127 0" result="hardAlpha"/>
<feOffset dy="4"/>
<feGaussianBlur stdDeviation="2"/>
<feComposite in2="hardAlpha" operator="arithmetic" k2="-1" k3="1"/>
<feColorMatrix type="matrix" values="0 0 0 0 0 0 0 0 0 0 0 0 0 0 0 0 0 0 0.25 0"/>
<feBlend mode="normal" in2="shape" result="effect2_innerShadow_2349_109533"/>
</filter>
<linearGradient id="paint0_linear_2349_109533" x1="54.8127" y1="21.888" x2="54.8127" y2="-7.112" gradientUnits="userSpaceOnUse">
<stop stop-color="#363636"/>
<stop offset="1" stop-color="#C9C9C9"/>
</linearGradient>
<linearGradient id="paint1_linear_2349_109533" x1="54.8127" y1="21.888" x2="54.8127" y2="-7.112" gradientUnits="userSpaceOnUse">
<stop stop-color="#363636"/>
<stop offset="1" stop-color="#C9C9C9"/>
</linearGradient>
<linearGradient id="paint2_linear_2349_109533" x1="54.8127" y1="21.888" x2="54.8127" y2="-7.112" gradientUnits="userSpaceOnUse">
<stop stop-color="#363636"/>
<stop offset="1" stop-color="#C9C9C9"/>
</linearGradient>
<linearGradient id="paint3_linear_2349_109533" x1="54.8127" y1="21.888" x2="54.8127" y2="-7.112" gradientUnits="userSpaceOnUse">
<stop stop-color="#363636"/>
<stop offset="1" stop-color="#C9C9C9"/>
</linearGradient>
<linearGradient id="paint4_linear_2349_109533" x1="54.8127" y1="21.888" x2="54.8127" y2="-7.112" gradientUnits="userSpaceOnUse">
<stop stop-color="#363636"/>
<stop offset="1" stop-color="#C9C9C9"/>
</linearGradient>
<linearGradient id="paint5_linear_2349_109533" x1="54.8127" y1="21.888" x2="54.8127" y2="-7.112" gradientUnits="userSpaceOnUse">
<stop stop-color="#363636"/>
<stop offset="1" stop-color="#C9C9C9"/>
</linearGradient>
<linearGradient id="paint6_linear_2349_109533" x1="54.8127" y1="21.888" x2="54.8127" y2="-7.112" gradientUnits="userSpaceOnUse">
<stop stop-color="#363636"/>
<stop offset="1" stop-color="#C9C9C9"/>
</linearGradient>
<linearGradient id="paint7_linear_2349_109533" x1="54.8127" y1="21.888" x2="54.8127" y2="-7.112" gradientUnits="userSpaceOnUse">
<stop stop-color="#363636"/>
<stop offset="1" stop-color="#C9C9C9"/>
</linearGradient>
<linearGradient id="paint8_linear_2349_109533" x1="54.8127" y1="21.888" x2="54.8127" y2="-7.112" gradientUnits="userSpaceOnUse">
<stop stop-color="#363636"/>
<stop offset="1" stop-color="#C9C9C9"/>
</linearGradient>
</defs>
</svg>
