<svg width="42" height="42" viewBox="0 0 42 42" fill="none" xmlns="http://www.w3.org/2000/svg">
<path d="M21 39.375C31.1482 39.375 39.375 31.1482 39.375 21C39.375 10.8518 31.1482 2.625 21 2.625C10.8518 2.625 2.625 10.8518 2.625 21C2.625 31.1482 10.8518 39.375 21 39.375Z" fill="url(#paint0_linear_2424_45)"/>
<path d="M30.1699 13.399C30.3334 12.3419 29.3283 11.5074 28.3883 11.9201L9.66632 20.14C8.99224 20.436 9.04155 21.4571 9.74068 21.6797L13.6016 22.9093C14.3385 23.144 15.1364 23.0226 15.7799 22.578L24.4847 16.5641C24.7472 16.3828 25.0333 16.756 24.809 16.9872L18.5431 23.4473C17.9353 24.074 18.0559 25.1359 18.7871 25.5944L25.8024 29.9936C26.5893 30.487 27.6015 29.9914 27.7486 29.0405L30.1699 13.399Z" fill="white"/>
<defs>
<linearGradient id="paint0_linear_2424_45" x1="21" y1="2.625" x2="21" y2="39.375" gradientUnits="userSpaceOnUse">
<stop stop-color="#37BBFE"/>
<stop offset="1" stop-color="#007DBB"/>
</linearGradient>
</defs>
</svg>
