<svg width="42" height="42" viewBox="0 0 42 42" fill="none" xmlns="http://www.w3.org/2000/svg">
<g clip-path="url(#clip0_2424_9)">
<path d="M27.489 -0.137695H14.511C2.6669 -0.137695 -0.137695 2.6669 -0.137695 14.511V27.489C-0.137695 39.3331 2.6669 42.1377 14.511 42.1377H27.489C39.3331 42.1377 42.1377 39.3331 42.1377 27.489V14.511C42.1377 2.6669 39.3032 -0.137695 27.489 -0.137695ZM33.9929 30.0246H30.9167C29.753 30.0246 29.3953 29.1 27.307 26.9818C25.4868 25.224 24.6817 24.9832 24.2309 24.9832C23.6042 24.9832 23.4249 25.159 23.4249 26.0273V28.8021C23.4249 29.5482 23.1858 29.9956 21.2171 29.9956C17.9651 29.9956 14.3555 28.0269 11.8189 24.3565C8.0001 18.9864 6.95596 14.9584 6.95596 14.1234C6.95596 13.6761 7.13174 13.2586 8.0001 13.2586H11.0763C11.8523 13.2586 12.1503 13.6163 12.4482 14.4521C13.9696 18.8379 16.5062 22.6866 17.5459 22.6866C17.9335 22.6866 18.1128 22.5108 18.1128 21.523V16.9878C17.9933 14.8995 16.8894 14.7202 16.8894 13.9749C16.8894 13.6172 17.1873 13.2586 17.6654 13.2586H22.4994C23.156 13.2586 23.3941 13.6163 23.3941 14.3924V20.5078C23.3941 21.1644 23.6921 21.4025 23.8714 21.4025C24.259 21.4025 24.5877 21.1635 25.3031 20.448C27.5109 17.9722 29.0921 14.1533 29.0921 14.1533C29.3013 13.706 29.659 13.2885 30.4351 13.2885H33.5112C34.4358 13.2885 34.645 13.7657 34.4358 14.4223C34.0482 16.2126 30.2892 21.523 30.2892 21.523C29.9613 22.06 29.8418 22.299 30.2892 22.8949C30.617 23.3423 31.6954 24.2669 32.4073 25.1027C33.7204 26.5969 34.7347 27.8476 35.0027 28.7124C35.306 29.5772 34.8577 30.0246 33.9929 30.0246Z" fill="#2787F5"/>
</g>
<defs>
<clipPath id="clip0_2424_9">
<rect width="42" height="42" fill="white"/>
</clipPath>
</defs>
</svg>
