<svg width="298" height="11" viewBox="0 0 298 11" fill="none" xmlns="http://www.w3.org/2000/svg">
<path d="M24.6223 10.7337C24.802 10.7204 25.5444 10.732 25.8747 10.7219C25.4951 10.8359 23.9669 10.7821 24.6223 10.7337ZM56.9903 2.37769C56.7305 2.40869 56.4716 2.43968 56.2138 2.47065C56.9472 2.47527 57.9462 2.43863 58.6451 2.45182C58.7592 2.45409 58.4645 2.53598 58.7346 2.53477C59.0052 2.53354 58.9509 2.42948 59.3456 2.41147C59.806 2.39129 61.7853 2.43051 62.4778 2.41689C65.1014 2.36491 67.6683 2.26117 70.3134 2.25983C67.595 2.38372 70.3451 2.41601 71.0898 2.36972C71.2579 2.35908 71.2104 2.16465 73.9065 2.16813C75.6245 2.17026 74.0575 2.47578 76.9101 2.28781C74.7285 2.12944 76.8655 2.107 78.5829 2.07159C78.8706 2.06558 81.3044 2.05398 82.3513 2.02779C82.71 2.01877 83.2565 1.90737 83.7356 1.89667C84.0653 1.88938 84.3158 1.94108 84.8075 1.93001C87.1194 1.87876 89.3443 1.83736 91.6507 1.81801C90.3085 2.103 92.7098 1.91242 92.8208 1.92316C93.372 1.98536 90.8837 2.0469 91.8682 2.0752C93.253 2.0441 94.5994 2.01371 95.9656 1.98304C94.8448 1.96926 97.4453 1.73741 97.9317 1.8154C97.7346 1.58638 104.149 1.91553 105.15 1.82185C105.349 1.80225 104.029 1.70893 107.111 1.71136C107.446 1.71176 107.321 1.78384 107.496 1.77447C107.601 1.76884 108.235 1.53594 108.917 1.64792C109.168 1.68878 107.574 1.86071 111.075 1.74542C109.688 1.54113 115.898 1.54508 117.057 1.58352C116.826 1.55675 116.596 1.52999 116.366 1.50322C117.504 1.56717 117.709 1.48688 117.965 1.48699C118.989 1.48752 120.401 1.54272 121.36 1.52046C122.481 1.49455 122.483 1.3536 123.794 1.38772C123.483 1.36154 123.171 1.33537 122.86 1.30919C123.765 1.30238 124.67 1.29561 125.569 1.28896C123.487 1.50825 126.019 1.29077 126.187 1.28414C126.453 1.27317 126.071 1.35553 126.517 1.33902C126.563 1.33673 126.495 1.26588 127.183 1.24702C128.621 1.20787 128.395 1.30184 129 1.29137C129.055 1.29004 128.86 1.22829 129.904 1.19668C133.219 1.09629 129.89 1.24652 129.761 1.25751C129.595 1.27194 130.736 1.52482 127.916 1.47288C128.862 1.48864 128.96 1.60694 129.066 1.60825C129.16 1.60922 130.802 1.56675 130.891 1.56125C131.695 1.50808 130.986 1.43722 131.142 1.42012C131.27 1.40629 133.243 1.48238 133.702 1.22904C134.65 1.44154 133.161 1.44369 131.581 1.50316C131.351 1.55334 133.088 1.57171 133.18 1.57018C135.422 1.53508 134.178 1.36749 134.666 1.24051C134.923 1.17405 135.839 1.2874 134.993 1.13292C137.029 1.08385 135.796 1.19995 135.927 1.21228C136.126 1.23033 136.838 1.17136 136.928 1.17639C137.059 1.18384 136.604 1.24883 137.121 1.26132C137.207 1.26297 138.037 1.15043 136.964 1.11918C138.396 1.11139 138.277 1.02813 138.765 1.19218C139.746 0.852677 139.484 1.37301 139.872 1.38526C140.906 1.41743 140.602 1.16729 140.657 1.15403C141.031 1.06867 143.892 1.1128 144.6 1.06544C144.324 1.2531 142.333 1.10172 141.889 1.14408C140.409 1.28499 143.979 1.20413 142.906 1.45097C143.356 1.38082 143.807 1.31069 144.257 1.24057C145.087 1.3763 143.914 1.45859 146.14 1.37092C146.502 1.23751 144.566 1.41482 144.953 1.3082C145.182 1.2456 146.472 1.21348 146.497 1.18193C146.522 1.14401 145.356 1.20603 145.539 1.14555C145.939 1.01486 150.195 1.06978 146.957 1.18625C147.861 1.17058 148.33 1.4114 149.112 1.32252C149.618 1.26487 146.762 0.965083 151.04 0.964195C151.132 1.07983 149.329 1.02418 149.283 1.03378C149.218 1.04772 149.547 1.30689 149.604 1.31909C149.803 1.35895 154.173 1.15282 155.094 1.2721C154.725 1.12483 158.395 1.19659 158.794 1.14437C158.9 1.12999 158.501 1.04228 158.615 1.03074C159.324 0.961528 161.242 1.1007 162.128 1.09232C163.12 1.08299 162.996 1.00404 163.051 1.0034C163.49 1.00162 163.14 1.06137 163.409 1.05737C163.816 1.05124 166.598 1.0229 166.736 1.00957C166.777 1.00544 166.322 0.919623 166.927 0.893575C167.031 0.889083 166.968 0.999269 168.755 0.926915C170.914 0.839831 167.256 0.81196 168.151 0.684879C169.535 0.828506 169.494 0.667523 169.87 0.674935C170.001 0.677725 170.977 0.801469 172.031 0.778173C171.275 0.810957 170.517 0.843809 169.758 0.876726C170.506 0.890351 171.951 0.840433 172.563 0.859195C172.862 0.868314 172.618 0.984548 173.265 0.972555C173.403 0.969412 173.946 0.686905 172.249 0.833761C172.111 0.737476 172.921 0.790201 173.295 0.757275C173.352 0.752168 173.573 0.585083 174.052 0.680434C174.169 0.703945 172.919 1.19946 176.145 0.809015C176.249 0.796429 175.885 0.741477 175.987 0.727663C176.057 0.71829 176.886 0.731244 176.977 0.721509C177.07 0.711117 176.67 0.651145 176.781 0.63676C177.351 0.56268 178.103 0.811946 176.926 0.808146C177.32 0.834861 177.714 0.861596 178.106 0.888352C177.684 0.69852 178.722 0.824998 179.263 0.811707C182.727 0.726805 180.405 0.630733 181 0.556965C181.954 0.438598 181.225 0.782912 182.659 0.663344C182.79 0.652242 181.06 0.53295 184.439 0.568582C183.942 0.580644 183.443 0.592745 182.944 0.604883C183.235 0.790148 184.744 0.568197 184.859 0.564056C186.179 0.520848 185.29 0.600564 187.241 0.477864C187.415 0.466873 187.795 0.508639 188.175 0.480471C189.734 0.364467 186.122 0.448719 186.029 0.373463C185.975 0.33653 189.862 0.295877 189.997 0.312103C190.566 0.383805 188.232 0.369443 188.678 0.4618C188.859 0.494031 194.343 0.35323 195.483 0.377685C196.768 0.406269 197.343 0.655764 197.349 0.367559C197.712 0.645968 198.027 0.449192 198.19 0.449173C200.143 0.451837 200.179 0.454298 201.876 0.407203C202.252 0.396904 202.569 0.479014 202.701 0.462981C202.778 0.453334 202.633 0.363185 203.01 0.330464C203.529 0.285523 206.68 0.343985 206.925 0.392122C207.163 0.440192 205.582 0.429306 205.866 0.50957C207.013 0.504988 208.103 0.472151 209.238 0.468482C209.709 0.467219 209.468 0.528285 209.671 0.527221C209.756 0.526971 211.381 0.457929 211.32 0.437072C211.142 0.38853 206.122 0.477773 207.443 0.36093C207.701 0.338274 208.609 0.462815 208.463 0.300745C212.959 0.288084 217.526 0.277997 222.011 0.273674C219.444 0.419768 216.457 0.339808 213.785 0.37923C213.414 0.384484 212.147 0.382099 212.302 0.463211C214.621 0.459925 217.492 0.38768 219.713 0.420346C219.783 0.421452 219.525 0.498268 219.789 0.507509C220.283 0.5247 221.882 0.389812 222.172 0.418197C222.22 0.424961 221.283 0.53166 221.569 0.591281C222.303 0.744278 222.484 0.388657 223.108 0.387189C223.608 0.385829 226.756 0.529552 227.602 0.414745C228.46 0.292303 225.207 0.367856 225.462 0.271632C227.337 0.172892 229.324 0.223039 231.092 0.220456C231.369 0.219952 231.642 0.218291 231.912 0.214819C231.948 0.214253 231.627 0.142731 232.095 0.129016C232.906 0.105211 233.115 0.208552 233.505 0.222621C233.928 0.237476 235.388 0.212921 235.578 0.249981C235.603 0.25483 235.311 0.360579 235.266 0.363789C234.634 0.410663 234.404 0.277383 234.346 0.276028C234.128 0.272365 233.912 0.325463 233.711 0.323754C233.38 0.320883 233.197 0.274354 232.756 0.273239C232.451 0.272307 232.746 0.361977 232.452 0.359873C232.352 0.358768 231.325 0.184431 231.093 0.333861C231.077 0.344898 231.065 0.357705 231.058 0.372482C231.056 0.37506 231.069 0.377565 231.093 0.379997C231.81 0.438279 240.47 0.462767 241.435 0.409345C240.621 0.387355 239.778 0.365846 238.999 0.344293C240.608 0.398126 242.643 0.218514 242.762 0.470929C248.817 0.466638 254.989 0.479082 261.039 0.526832C262.148 0.553751 261.562 0.712715 263.326 0.675755C262.876 0.621209 262.417 0.566851 261.951 0.512685C262.857 0.551881 266.919 0.653061 267.601 0.628271C267.687 0.624833 267.8 0.478464 268.81 0.476927C269.737 0.476287 269.873 0.588419 270.349 0.615563C270.738 0.637961 271.207 0.615598 271.33 0.623447C271.425 0.629655 271.462 0.697535 271.686 0.712547C272.388 0.75931 271.826 0.561085 272.509 0.789481C272.343 0.795173 272.176 0.800899 272.006 0.80666C272.829 0.850417 274.011 0.969569 272.747 0.997395C272.539 1.00249 272.719 0.940173 272.563 0.937813C266.318 0.864631 271.301 1.0533 273.5 0.990861C274.071 1.09491 277.2 1.10141 277.335 1.12605C277.481 1.15718 276.937 1.22108 277.645 1.3051C277.764 1.31644 282.037 1.39482 280.503 1.4751C280.183 1.48955 278.122 1.40259 277.667 1.3965C278.819 1.62702 281.495 1.4199 281.828 1.44266C283.056 1.51989 279.443 1.53308 282.219 1.65887C284.359 1.76484 282.364 1.54542 283.182 1.52132C283.646 1.50383 286.047 1.78154 286.004 1.58809C286.826 1.61826 286.344 1.69194 286.443 1.70548C286.553 1.71632 288.198 1.77486 288.737 1.86973C288.802 1.8807 288.587 1.96312 288.654 1.97746C288.766 1.99663 290.395 2.1447 290.446 2.14631C290.484 2.14453 290.123 2.01435 290.278 2.01024C290.357 2.00707 290.757 2.05179 291.13 2.09492C291.551 2.14345 291.984 2.19241 292.026 2.18374C292.094 2.17021 291.565 2.108 291.136 2.04327C290.79 1.99088 290.489 1.93637 290.634 1.90852C290.786 1.93074 290.97 1.954 291.144 1.97344C291.949 2.06373 292.95 2.11885 293.414 2.10501C293.273 2.11227 292.458 2.0245 292.177 1.98418C292.323 1.85529 294.082 2.05363 293.467 2.10067C293.858 2.08235 293.602 2.02059 293.823 1.98689C293.883 1.97855 294.442 2.03994 294.563 2.03027C294.576 2.02608 293.994 1.90245 294.116 1.88715C294.228 1.87454 294.684 1.91079 295.258 1.99575C295.778 2.04657 296.837 2.37693 296.977 2.47633C297.385 2.69535 296.822 2.41168 296.198 2.27015C295.595 2.13314 295.175 2.11812 295.099 2.13414C295.091 2.13993 295.401 2.20706 295.868 2.34393C296.337 2.4673 297.007 2.79336 296.999 2.80432C297.063 2.89178 296.368 2.58168 295.879 2.4921C295.392 2.38814 295.088 2.36068 295.161 2.42095C295.536 2.50546 296.022 2.59023 296.684 2.88209C295.299 2.42658 294.557 2.49703 293.73 2.38646C292.934 2.3117 292.24 2.25037 291.945 2.27567C293.687 2.43319 295.726 2.67141 295.89 3.04198C295.87 3.09337 295.556 3.06206 295.312 3.0562C295.066 3.04761 294.859 3.04422 294.873 3.06018C294.934 3.12192 295.251 3.15648 295.674 3.23676C296.097 3.30613 296.652 3.52111 296.668 3.53847C296.72 3.57045 296.741 3.58816 296.738 3.59339C296.738 3.59339 296.738 3.59339 296.738 3.59339C296.757 3.6223 295.982 3.3046 295.464 3.25079C294.943 3.17272 294.539 3.14983 294.493 3.15577C294.346 3.1846 295.056 3.47971 295.058 3.52865C295.007 3.52175 293.861 3.42819 294.237 3.55195C294.586 3.66105 295.693 3.84462 295.797 3.91058C295.921 3.96796 295.369 3.83438 294.938 3.7989C294.493 3.75212 294.062 3.72306 294.032 3.73262C293.999 3.74057 294.921 3.94228 294.957 3.97839C294.969 4.0016 294.246 3.9581 293.967 4.00628C293.758 4.03967 294.346 4.15365 294.241 4.15045C294.157 4.14333 292.578 3.96634 292.498 3.96749C292.381 3.96937 292.743 4.07935 292.686 4.09028C292.611 4.10685 292.101 4.02439 292.164 4.05704C292.213 4.08235 294.166 4.5386 294.149 4.60414C294.111 4.70568 292.041 4.22216 293.946 4.86809C293.957 4.87167 294.438 4.90016 294.452 4.90558C294.732 5.02611 293.204 4.92776 295.055 5.17977C291.592 4.85566 294.609 5.27203 294.077 5.38534C293.875 5.42922 292.53 5.30898 292.521 5.31836C292.644 5.42153 293.078 5.40063 293.217 5.46009C293.297 5.49343 292.085 5.45234 292.348 5.5431C292.486 5.59034 293.758 5.72098 293.808 5.73438C294.298 5.85099 293.682 5.84025 293.786 5.89402C293.859 5.92842 294.6 6.02552 294.61 6.03596C294.648 6.04597 293.628 6.0299 293.4 6.04631C293.233 6.05745 293.842 6.17469 293.725 6.17459C293.034 6.17356 291.569 5.81024 292.965 6.24798C293.051 6.27476 293.585 6.32812 293.602 6.33373C293.921 6.45024 292.94 6.34524 292.752 6.39027C292.437 6.46769 293.866 6.56482 292.672 6.51054C293.521 6.68463 294.166 6.72803 294.874 6.85074C293.827 6.68317 292.616 6.68049 292.441 6.73007C292.2 6.78557 292.812 6.91121 294.299 7.09504C293.366 6.96939 293.421 7.14883 293.129 7.11689C292.942 7.09758 291.48 6.76978 292.117 7.20896C292.198 7.26411 293.102 7.30676 292.81 7.36809C290.654 7.1024 292.762 7.4228 292.759 7.43462C292.736 7.52555 291.737 7.43633 290.519 7.28742C288.978 7.08519 287.181 6.89411 286.663 6.87492C285.63 6.83152 284.72 6.95507 284.485 6.94291C283.738 6.90523 284.357 6.85023 284.194 6.81032C284.056 6.76886 281.883 6.84057 281.806 6.83109C281.402 6.77947 281.818 6.693 281.775 6.68627C281.247 6.60013 278.414 6.59205 277.608 6.55113C277.614 6.61685 279.253 6.66631 278.223 6.74483C277.072 6.83875 276.996 6.54637 276.968 6.53259C271.559 6.40981 266.258 6.36657 260.808 6.34395C260.914 6.4986 264.386 6.40126 264.498 6.42365C264.927 6.54503 259.047 6.51129 258.277 6.45753C258.845 6.49262 259.403 6.52799 259.95 6.5636C259.006 6.73818 256.914 6.50068 255.534 6.57811C255.084 6.60312 255.948 6.67304 255.929 6.67775C255.429 6.74631 254.607 6.69221 255.219 6.59973C253.981 6.6878 254.196 6.58966 253.262 6.58207C253.214 6.58177 253.614 6.65375 252.877 6.68365C252.531 6.6974 250.662 6.69903 250.436 6.7625C250.338 6.78911 251.252 7.06737 251.365 6.82697C253.414 6.94289 252.021 6.717 252.809 6.72223C252.923 6.72363 252.674 6.85714 254.593 6.79499C254.243 7.03635 251.988 6.85546 251.577 6.8854C250.769 6.94592 254.11 7.06938 254.667 6.88196C254.387 7.07059 254.904 6.90746 255.653 6.91616C256.463 6.9257 256.11 6.98144 256.544 6.98245C257.725 6.98615 257.211 6.85179 258.203 6.97444C257.228 6.59976 259.92 6.9301 260.641 7.03125C259.45 7.04501 258.101 7.05982 256.916 7.07641C256.986 7.09608 257.056 7.11576 257.126 7.13543C256.803 7.13199 256.477 7.12863 256.148 7.12536C256.2 7.10672 256.253 7.08809 256.306 7.06946C254.59 7.18859 254.186 7.05226 254.052 7.05054C252.286 7.03381 250.239 7.03686 248.419 7.04029C248.151 7.04091 248.305 7.16176 246.378 7.07174C245.753 7.04323 246.344 6.94674 245.632 6.96314C244.738 7.22337 244.749 7.01818 244.48 7.01878C243.686 7.02167 243.271 7.08716 243.192 7.08813C242.275 7.10171 240.887 7.09735 239.835 7.11225C239.813 7.11333 240.346 7.18969 239.686 7.16966C239.463 7.16239 237.383 6.83579 235.496 6.95792C235.971 6.9777 236.474 6.99739 236.956 7.01732C236.345 6.98854 232.466 7.09959 233.415 7.18363C234.011 7.23466 235.429 7.00788 235.582 7.21618C234.987 7.19071 233.118 7.20759 231.144 7.23087C229.008 7.25641 226.751 7.29002 226.441 7.26672C226.361 7.26045 226.852 7.18843 226.741 7.18068C226.634 7.17491 225.016 7.20486 224.789 7.18084C224.659 7.16648 225.387 7.11853 225.327 7.0946C225.28 7.07748 223.208 7.06678 223.084 7.15307C223.6 7.11419 225.028 7.13141 224.28 7.20975C224.184 7.2195 223.682 7.16909 223.564 7.18146C222.474 7.29544 225.733 7.24134 226.214 7.23836C224.224 7.36351 220.987 7.26529 218.652 7.35895C217.692 7.2975 220.071 7.23681 218.987 7.18868C216.73 7.08919 218.388 7.29246 218.318 7.30215C217.764 7.37897 215.817 7.01566 215.838 7.30694C215.033 7.2713 215.295 7.23183 214.151 7.28181C214.302 7.30043 214.453 7.31905 214.603 7.33767C213.343 7.51937 210.596 7.12296 210.802 7.08831C211.354 6.99536 212.778 7.11583 212.897 7.11134C213.074 7.10469 213.574 6.80348 215.505 7.04811C216.297 6.84152 212.433 6.94603 214.193 6.79256C212.996 6.82677 208.084 6.7421 207.375 6.83743C207.29 6.84976 207.69 7.04287 206.466 6.95607C205.884 6.91474 207.285 6.89664 207.018 6.85462C206.173 6.72448 195.189 6.94295 193.063 6.97829C192.928 6.9802 192.977 6.91825 192.844 6.92048C192.437 6.92727 190.947 7.03752 190.209 7.01871C191.735 7.11283 188.774 7.1593 188.011 7.15673C186.869 7.15244 186.943 7.04357 186.451 7.027C184.565 6.96295 181.582 7.25872 180.124 7.03874C180.209 7.27535 177.572 6.95646 176.364 6.97089C175.414 6.98214 174.069 7.15796 175.329 7.23653C173.717 7.24764 172.012 7.31559 170.485 7.35134C170.233 7.35728 170.579 7.28213 170.149 7.2945C170.11 7.29613 170.057 7.36577 169.687 7.37812C166.65 7.48079 168.127 7.31366 167.558 7.27861C167.24 7.25899 167.005 7.25032 166.833 7.24881C168.599 7.21034 170.648 7.15468 171.197 7.14511C170.723 6.99946 167.267 7.2293 166.254 7.2028C166.219 7.20181 166.34 7.11622 166.304 7.11613C166.303 7.11615 166.303 7.11616 166.302 7.11617C165.923 7.11507 163.498 7.18057 163.999 7.27345C164.133 7.29825 165.251 7.28223 166.571 7.25447C166.214 7.27828 166.482 7.36844 166.419 7.37334C165.655 7.43056 163.775 7.36564 163.107 7.36287C162.954 7.36234 162.966 7.42236 162.941 7.42287C162.338 7.41785 162.583 7.24246 161.966 7.42855C160.87 7.23009 164.016 7.36734 163.795 7.23142C163.617 7.1266 156.637 7.28503 156.653 7.45379C156.629 7.4361 156.532 7.41512 156.335 7.39252C155.898 7.34226 153.954 7.38852 153.618 7.42458C153.561 7.43154 153.586 7.59495 153.516 7.59749C153.341 7.60382 150.959 7.51064 150.07 7.6207C150.551 7.6365 151.032 7.65231 151.512 7.66814C148.611 7.71265 149.063 7.75474 150.028 7.78933C150.076 7.78905 150.123 7.79457 150.169 7.79455C150.919 7.81959 151.88 7.84023 151.895 7.85293C151.949 7.90132 147.034 8.00202 147.977 7.83604C148.109 7.81328 150.383 7.84703 149.256 7.75541C149.059 7.73934 147.599 7.79211 147.522 7.78132C147.008 7.70954 150.194 7.55639 149.803 7.44936C149.031 7.56834 148.037 7.52658 147.15 7.56763C146.746 7.58623 146.648 7.66982 146.598 7.67212C145.853 7.70474 146.27 7.61238 146.021 7.61827C145.888 7.62175 144.423 7.82707 144.696 7.57035C139.861 7.82936 143.361 7.77602 146.328 7.71719C145.392 7.82324 143.552 7.80652 142.728 7.84039C142.432 7.85262 142.609 7.93423 142.109 7.95868C141.08 8.00886 136.169 7.98719 134.886 7.98427C135.672 7.94237 135.441 7.85412 134.834 7.86982C134.227 7.88558 134.739 8.00023 134.621 8.01523C134.493 8.0308 131.648 8.01703 131.176 8.04028C133.315 7.96267 132.831 7.87862 131.015 7.89725C131.277 7.86681 131.539 7.83636 131.801 7.80592C130.741 7.85942 128.488 7.75491 127.874 7.8061C127.777 7.8143 128.126 7.88583 128.072 7.89043C127.531 7.93158 125.693 7.88192 125.608 7.90953C125.536 7.93253 126.32 7.98475 126.03 8.02108C125.97 8.02872 125.213 7.93655 124.471 7.97382C124.194 7.9876 124.362 8.05776 124.292 8.06308C123.711 8.10727 124.052 7.97927 122.989 8.01575C122.211 8.04263 121.634 8.17163 120.56 8.14896C124.089 8.24586 121.121 8.22899 119.652 8.29866C119.417 8.30979 119.62 8.43872 118.213 8.39677C121.202 8.1102 117.359 8.28402 116.559 8.29423C116.516 8.29411 116.5 8.20721 116.111 8.21202C116.079 8.21262 116.127 8.27076 115.766 8.28103C112.354 8.37829 114.535 8.2768 113.886 8.22911C113.608 8.20882 111.962 8.31859 111.51 8.32789C111.407 8.32976 111.453 8.2678 111.054 8.27664C110.347 8.29244 109.716 8.36779 109.251 8.38048C109.197 8.38165 109.192 8.28514 108.313 8.3307C108.066 8.34346 107.789 8.38224 108.14 8.40431C109.301 8.47682 111.536 8.28269 112.841 8.35286C114.043 8.41653 110.256 8.4853 110.054 8.48909C109.982 8.49057 110.723 8.43064 109.969 8.43333C109.325 8.43583 108.154 8.62159 107.2 8.60074C107.127 8.59923 106.363 8.4702 106.398 8.46138C106.43 8.45485 107.599 8.40517 107.429 8.36701C107.408 8.36268 106.665 8.37569 106.567 8.3468C106.448 8.31165 106.122 7.95293 105.964 7.94638C105.557 7.93045 105.824 8.00913 105.559 8.00765C104.986 8.00479 103.011 7.92935 102.95 8.05653C103.275 8.05871 103.601 8.06088 103.927 8.06305C102.115 8.10559 102.889 8.14667 102.633 8.17452C102.357 8.20462 102.433 8.09248 101.824 8.09202C101.688 8.09194 99.1603 8.15651 99.198 8.20244C100.606 8.10527 100.083 8.25091 100.149 8.25227C100.395 8.25718 100.707 8.17518 101.038 8.1713C103.363 8.14529 101.02 8.30497 101.569 8.32718C101.758 8.33459 102.134 8.26282 102.215 8.26486C102.476 8.27146 102.482 8.35731 102.656 8.34751C103.062 8.32474 102.585 8.21092 102.617 8.20407C102.979 8.12206 104.409 8.19342 103.522 8.34021C104.057 8.37918 104.117 8.21738 104.542 8.27475C105.387 8.38828 104.123 8.37618 103.782 8.40288C102.559 8.49908 102.194 8.44331 100.473 8.49261C99.8562 8.51017 99.1198 8.60038 98.8269 8.60948C98.6425 8.6152 96.9128 8.37186 96.8702 8.79794C96.2004 8.76781 95.1503 8.50482 94.4672 8.52893C93.8539 8.55076 94.0517 8.69797 93.9945 8.70474C93.9087 8.7153 93.1623 8.71579 92.9054 8.74131C92.6072 8.77138 92.757 8.82633 92.2843 8.85758C91.1094 8.93515 91.1395 8.78105 91.0185 8.77308C89.6206 8.6809 90.236 8.88917 89.9269 8.91183C89.6462 8.93256 85.6012 8.91588 84.7481 8.98548C85.0936 8.94894 85.4398 8.91238 85.7869 8.87582C85.1631 8.79042 84.5101 8.95762 84.4957 8.78605C84.374 9.06547 83.0982 8.90142 82.7191 8.91495C82.5693 8.92041 82.5818 8.96747 82.3945 8.97265C81.6715 8.99305 79.9686 8.98404 79.5733 9.01467C77.8262 9.14724 82.3159 9.24338 82.6391 9.24838C81.9619 9.25663 77.9624 9.38604 79.7963 9.48854C80.0786 9.50436 80.5779 9.37184 80.7371 9.3643C81.8153 9.31423 80.9687 9.43969 81.0534 9.44885C81.1953 9.46354 81.9138 9.34394 82.0902 9.35379C82.1517 9.35687 81.7583 9.46419 82.767 9.4494C82.2931 9.55497 79.3827 9.52431 79.0172 9.55342C78.8857 9.56383 79.7184 9.75843 77.28 9.59686C77.3085 9.61575 77.337 9.63464 77.3655 9.65353C76.0363 9.68392 74.6162 9.71591 73.2634 9.7468C73.4106 9.69968 74.1751 9.59708 73.211 9.63243C72.6572 9.65283 73.0687 9.74526 73.0182 9.749C72.5557 9.78404 63.6895 9.90189 61.9866 9.94231C61.4158 9.95568 59.8002 10.0633 59.6658 10.0671C58.9067 10.0881 56.3032 10.0808 55.802 10.1007C55.4721 10.1136 55.7882 10.1913 55.4906 10.1925C55.2137 10.1936 55.4991 10.1083 55.4168 10.1064C54.7086 10.0894 49.687 10.2814 48.4662 10.2268C49.1948 10.2369 52.8822 10.0128 52.7912 9.95773C52.7742 9.95026 51.8932 9.90435 51.7149 9.93723C51.432 9.87256 50.3616 10.1028 49.7896 10.0711C49.7257 10.0675 49.9742 9.94439 48.959 9.94037C48.6116 9.93905 47.7123 10.0462 46.8248 9.96027C46.82 9.95984 46.8152 9.95941 46.8105 9.95897C45.4012 10.0332 38.5051 9.99871 37.9876 10.1354C37.9716 10.1424 38.9811 10.1688 38.3005 10.233C37.4022 10.3182 38.201 10.0698 37.1633 10.0677C37.0057 10.0673 34.1623 10.1405 34.0502 10.157C33.1635 10.3041 35.7446 10.3124 35.6727 10.329C35.6216 10.3684 33.4669 10.4292 33.4017 10.4213C33.3207 10.4132 35.0119 10.2094 32.9807 10.3109C33.2116 10.3277 33.4441 10.3445 33.6784 10.3613C32.7221 10.4185 32.638 10.2994 32.4097 10.296C31.7196 10.2847 30.8714 10.4827 29.7367 10.2763C29.4347 10.2215 29.9333 10.1461 29.8959 10.1377C29.5226 10.0634 29.1044 10.287 28.519 10.1359C28.481 10.1246 29.7835 10.0051 27.4976 10.0449C27.653 10.0576 27.8094 10.0704 27.9667 10.0831C27.6297 10.1235 25.4061 10.183 25.0664 10.1809C24.1664 10.1728 24.9433 10.0482 24.0523 10.0771C24.6371 10.2189 21.8937 10.2871 22.0479 10.1535C21.6856 10.3243 19.3341 10.239 18.2642 10.2542C17.5385 10.2648 16.1987 10.3605 15.9448 10.3566C15.674 10.3512 15.7508 10.2376 15.272 10.2212C15.1515 10.2162 13.6961 10.3246 12.4469 10.2311C12.1946 10.2132 11.6833 10.0322 12.1347 9.97641C12.9597 9.88001 14.3614 10.0081 14.3704 9.8955C14.3237 9.77599 12.3725 9.88274 11.828 9.87698C9.36928 9.84918 10.7845 9.69549 10.7227 9.65782C10.5553 9.56676 9.21864 9.59427 9.15887 9.58695C8.92054 9.55377 9.89006 9.4614 9.9049 9.40372C9.91349 9.32876 8.60923 9.21793 8.90673 9.18723C9.31844 9.14378 10.5173 9.23423 10.5882 9.22758C11.587 9.13678 10.2026 8.98933 9.86604 8.91068C9.75811 8.88655 10.1852 8.8358 10.0963 8.82977C8.66463 8.73994 9.78763 9.0782 8.85348 9.0715C8.03248 9.06537 9.08498 8.93231 9.0556 8.92661C9.02527 8.92027 7.99939 8.93316 7.84726 8.89587C7.75974 8.87725 10.4172 8.60728 10.2759 8.51098C9.45304 8.54789 8.61174 8.58525 7.76872 8.62287C7.68821 8.49526 8.92353 8.56725 9.02768 8.55205C9.27222 8.52081 8.58919 8.46814 8.62149 8.42674C8.63206 8.40058 9.42852 8.29319 8.70921 8.26834C8.45325 8.25992 7.92732 8.36014 6.98255 8.28555C10.2392 8.10639 7.9641 8.07646 7.87411 8.03239C7.77964 7.98843 9.31232 7.85215 7.46437 7.90577C7.38189 7.65612 7.49156 7.82583 8.01752 7.77184C8.66745 7.70548 7.17608 7.65037 9.54739 7.66922C9.39916 7.55426 7.48725 7.59816 7.40438 7.59043C7.32234 7.58346 7.73049 7.51794 7.58437 7.50109C5.77521 7.30801 7.01424 7.38837 6.5024 7.25295C6.42774 7.24131 4.78441 7.21933 6.03783 7.17394C8.41628 7.09003 9.34895 7.24008 9.77622 6.87578C8.03018 6.75298 5.9097 7.02331 5.39329 7.03748C4.58242 7.05901 5.41606 6.96996 5.31874 6.95151C5.27674 6.94572 4.59831 6.96515 4.57731 6.95984C4.09555 6.69708 7.68306 6.89477 8.8162 6.82709C8.53937 6.79152 8.19274 6.75727 7.89727 6.72211C8.31189 6.71272 8.73239 6.70328 9.13329 6.69424C7.1852 6.6486 9.05348 6.66467 9.55597 6.4354C9.66484 6.38395 8.35101 6.49298 9.85473 6.32783C8.72585 6.31692 9.13272 6.26443 8.11763 6.34535C8.18426 6.25582 10.3176 6.11685 11.2392 6.05488C8.13823 6.01262 9.93213 6.30295 7.24109 6.18207C6.98685 6.24148 7.18652 6.25969 7.44191 6.26547C7.67009 6.27177 7.9614 6.26551 7.91006 6.27548C7.55808 6.3469 6.67536 6.26046 5.62885 6.50787C5.45483 6.54856 6.19783 6.64881 5.10263 6.66467C5.0008 6.66584 4.29017 6.58197 4.31163 6.57447C4.38882 6.49604 5.08479 6.51097 5.10117 6.47862C5.13486 6.44756 4.36756 6.48109 4.37112 6.47266C4.33608 6.37709 5.01759 6.42294 4.91023 6.39497C4.69395 6.33364 1.96764 6.18148 5.53358 6.17078C2.58984 6.33819 5.13878 6.28419 6.29946 6.22047C6.60758 6.2041 6.64807 6.14584 7.07438 6.11782C7.63996 6.08129 8.21793 6.0981 8.52836 6.08178C8.82002 6.06476 7.12768 5.96022 9.57155 5.95553C8.34784 5.84284 6.0966 6.02908 4.89734 5.95811C2.42884 5.8158 6.60893 5.69102 7.04522 5.66515C7.16261 5.65789 6.76771 5.58774 6.8462 5.5815C7.00295 5.57107 9.33442 5.56347 9.5957 5.49454C9.82997 5.42602 8.7088 5.51386 8.65149 5.44802C8.58203 5.40412 11.4502 5.2715 9.91657 5.26886C8.8241 5.26772 6.85891 5.48571 6.53419 5.29733C8.09898 5.25141 9.67403 5.20629 11.2667 5.16113C10.3731 5.10335 9.52074 5.04492 8.66975 4.98664C10.4378 4.93037 11.9696 4.98618 13.6353 4.8501C9.59048 4.68589 14.9643 4.63661 15.0046 4.60718C15.0442 4.58917 13.4149 4.42582 13.1765 4.39491C14.6186 4.29463 18.8227 4.18348 16.3704 3.98935C16.7987 4.0354 17.9016 3.88317 17.8915 3.87334C17.7344 3.77101 15.3612 3.88155 15.7391 3.77989C16.2158 3.66121 16.8228 3.7998 17.5236 3.77538C21.104 3.64953 20.1016 3.11868 23.7103 3.14184C23.6402 3.12354 23.5703 3.10524 23.5007 3.08693C27.3932 3.04946 31.2968 3.01233 35.2226 2.97507C36.6935 2.7819 40.7607 2.60923 42.8003 2.59244C43.1824 2.58942 45.1454 2.64335 45.3034 2.65604C45.5798 2.68079 44.0586 2.7184 44.7463 2.76189C44.8228 2.7666 45.8055 2.76285 46.6999 2.74442C47.44 2.72901 48.1092 2.70222 47.9974 2.66022C47.7421 2.65716 47.1191 2.68788 46.6992 2.70115C46.4961 2.70739 46.3367 2.71 46.2752 2.70417C46.0001 2.67752 46.1966 2.65397 46.698 2.63266C48.5875 2.54911 55.3111 2.50378 55.7459 2.44549C55.5235 2.41887 55.281 2.3926 55.0499 2.36614C55.7295 2.36942 56.3406 2.37388 56.9903 2.37769ZM27.252 10.4218C26.8573 10.5228 25.9287 10.4685 25.315 10.5057C24.4943 10.557 23.1897 10.9422 23.7503 10.5693C24.885 10.5207 26.1209 10.4703 27.252 10.4218ZM44.3779 10.2638C43.5989 10.2268 44.1955 10.0137 44.8416 10.0868C44.9141 10.0951 45.4401 10.3134 44.3779 10.2638ZM36.1472 10.3105C36.1785 10.3072 36.8502 10.3009 36.8749 10.3037C37.4787 10.3746 35.4555 10.3931 36.1472 10.3105ZM75.9609 9.52243C75.084 9.54599 75.7213 9.71953 76.2669 9.63447C76.3012 9.62907 76.0186 9.52102 75.9609 9.52243ZM75.3372 9.52808C74.6535 9.37459 73.302 9.73196 74.3818 9.68001C74.4861 9.67484 75.3683 9.53559 75.3372 9.52808ZM41.5802 10.2317C41.6652 10.167 42.5025 10.183 42.8482 10.1922C42.8526 10.2498 41.9196 10.2188 41.5802 10.2317ZM62.1365 9.85965C62.1748 9.80925 59.3667 9.86013 59.1614 9.92921C59.6242 9.89345 62.1081 9.90482 62.1365 9.85965ZM69.3641 9.66648C69.2911 9.65912 68.314 9.68882 68.3439 9.73219C68.8197 9.78164 69.689 9.69986 69.3641 9.66648ZM83.7286 9.42693C83.7818 9.41502 83.0481 9.14808 84.7759 9.30294C85.0298 9.32561 84.1258 9.41368 84.2162 9.42219C84.4048 9.43857 84.554 9.44518 84.6739 9.44481C83.8696 9.48141 83.0406 9.50619 82.9602 9.4906C82.582 9.41694 83.7047 9.43193 83.7286 9.42693ZM91.2657 9.09325C91.4306 9.04497 92.495 9.05167 92.7387 9.06639C92.7806 9.06923 92.6005 9.19191 93.0813 9.175C93.4666 9.16123 92.8911 9.04816 93.6388 9.05541C94.3854 9.06275 93.3908 9.16657 93.4541 9.17176C93.5431 9.17846 94.697 9.10433 94.663 9.1762C94.6344 9.22948 93.4045 9.2141 93.0844 9.23062C92.6859 9.25164 93.1706 9.33161 92.5044 9.32374C92.0862 9.31886 92.3154 9.16034 92.2271 9.15399C92.1521 9.14892 90.6979 9.26209 91.2679 9.0937C91.2672 9.09355 91.2664 9.0934 91.2657 9.09325ZM84.8915 9.43434C84.831 9.44058 84.7599 9.44454 84.6739 9.44481C84.7468 9.44149 84.8195 9.43784 84.8915 9.43434ZM29.5292 10.3141C29.9246 10.3549 28.763 10.4364 28.2679 10.3826C28.2671 10.3321 29.4735 10.3076 29.5292 10.3141ZM85.6372 9.29587C86.8398 9.31455 85.9542 9.38264 84.8915 9.43434C85.2286 9.39957 85.2343 9.28966 85.6372 9.29587ZM51.7149 9.93723C51.7645 9.94791 51.7961 9.96536 51.8006 9.99484C51.6701 9.96476 51.6583 9.9476 51.7149 9.93723ZM54.4929 9.94208C55.4589 9.8354 53.4945 9.87287 53.5124 9.937C53.5175 9.96123 54.4531 9.94635 54.4929 9.94208ZM77.0664 9.51255C76.9802 9.5052 78.3179 9.21072 76.3726 9.44759C77.4119 9.46209 76.3161 9.5102 76.3331 9.53372C76.3747 9.60145 78.1238 9.50616 78.517 9.52912C78.8198 9.40157 77.3508 9.53678 77.0686 9.51252C77.0679 9.51253 77.0671 9.51254 77.0664 9.51255ZM104.865 8.93562C104.625 9.01127 103.861 9.00063 103.347 9.00479C103.586 8.92915 104.349 8.93979 104.865 8.93562ZM239.05 7.19594C235.558 7.28176 235.068 6.99312 238.305 7.08964C238.368 7.09168 239.26 7.16519 239.05 7.19594ZM208.909 7.38148C208.578 7.25779 209.669 7.22526 210.379 7.27016C210.54 7.28023 211.135 7.40278 210.458 7.43534C210.478 7.28076 209.426 7.23325 208.909 7.38148ZM86.3149 9.203C86.662 9.11227 87.7525 9.15454 88.3038 9.15811C87.9699 9.2336 86.8181 9.22117 86.3149 9.203ZM227.511 7.123C227.136 7.11645 226.882 7.22937 226.947 7.23804C227.24 7.27786 227.939 7.18255 227.511 7.123ZM82.8593 9.24762C82.8089 9.19771 84.2189 9.12524 84.3208 9.24902C84.0171 9.24502 82.894 9.27888 82.8593 9.24762ZM103.893 8.91336C103.671 8.89117 104.816 8.82632 105.164 8.84626C105.137 8.90072 104.038 8.92777 103.893 8.91336ZM221.534 7.21323C221.2 7.20672 220.39 7.21144 220.298 7.25712C220.188 7.31412 221.378 7.28379 221.534 7.21323ZM283.076 7.35447C283.127 7.37616 281.849 7.46782 281.291 7.41209C280.211 7.30201 283.052 7.33515 283.076 7.35447ZM230.998 7.03841C231.052 7.0436 231.1 7.04825 231.143 7.05243C231.669 7.10126 231.385 7.08402 231.143 7.09659C231.024 7.10304 230.916 7.11747 230.931 7.15318C230.994 7.15307 231.066 7.15291 231.144 7.15263C231.95 7.14955 233.302 7.13541 232.197 7.04425C231.992 7.02749 231.493 7.03881 231.143 7.03924C231.09 7.03928 231.042 7.03906 230.998 7.03841ZM230.051 7.00849C229.941 7.04527 229.195 7.16438 229.84 7.15124C230.138 7.14501 230.615 7.01547 230.051 7.00849ZM275.212 7.16764C274.296 7.04842 278.525 7.19528 278.671 7.22158C278.736 7.23248 278.779 7.24223 278.802 7.25017C278.966 7.22339 279.74 7.24078 279.848 7.32316C279.583 7.30822 278.963 7.29704 278.879 7.28604C278.847 7.2814 278.822 7.27722 278.805 7.2732C278.482 7.32953 275.41 7.18796 275.212 7.16764ZM268.123 6.96084C269.176 6.82717 269.394 7.07662 269.294 7.08326C268.103 7.17044 268.881 6.99767 268.845 6.98872C268.749 6.97338 267.945 7.04908 268.127 6.96087C268.125 6.96086 268.124 6.96085 268.123 6.96084ZM273.766 7.09969C273.814 7.09718 274.692 7.12109 274.723 7.12574C275.449 7.22203 272.949 7.15462 273.766 7.09969ZM96.9471 8.82695C97.5936 8.8408 96.9609 8.94185 96.5319 8.91632C96.4967 8.91369 96.3774 8.8147 96.9471 8.82695ZM229.541 7.03686C229.415 7.02034 225.522 6.98794 225.786 7.12287C226.085 7.10365 230.485 7.13867 229.541 7.03686ZM200.962 7.29275C201.64 7.28579 200.903 7.4236 200.539 7.3798C200.404 7.36353 200.791 7.29458 200.962 7.29275ZM80.9443 9.16254C80.2394 9.24532 80.3811 9.00497 80.995 9.07623C81.0191 9.07902 80.972 9.15931 80.9443 9.16254ZM206.347 7.30461C204.004 7.40957 204.554 6.99371 207.601 7.09763C207.507 7.11692 207.412 7.13621 207.317 7.1555C210.805 7.17814 207.563 7.18148 206.698 7.21422C206.371 7.22662 206.646 7.29183 206.35 7.30507C206.349 7.30492 206.348 7.30477 206.347 7.30461ZM197.419 7.32745C195.188 7.06409 199.423 7.20165 200.674 7.14917C199.466 7.28348 197.939 7.28369 200.039 7.38135C196.972 7.44187 198.25 7.31092 198.127 7.30275C197.982 7.29371 197.514 7.33876 197.419 7.32745ZM203.326 7.25525C203.456 7.24526 204.425 7.29319 204.772 7.27958C204.289 7.38432 202.471 7.32283 203.326 7.25525ZM260.669 6.97473C260.742 6.89732 260.955 6.8408 261.735 6.87373C261.498 6.91159 260.981 6.94276 260.669 6.97473ZM26.5147 10.0255C26.0236 10.0286 24.9092 10.0188 25.2495 10.0946C25.2903 10.1009 26.5255 10.0712 26.5147 10.0255ZM218.438 7.07245C218.332 7.06377 215.374 7.08707 216.397 7.16259C216.713 7.18515 219.378 7.14791 218.438 7.07245ZM233.537 6.95426C233.296 6.95506 232.297 6.97677 232.274 6.99535C232.208 7.05936 233.434 7.01577 233.537 6.95426ZM23.8386 9.99295C23.7923 9.98569 22.1362 10.0292 22.3213 10.0637C22.6718 10.1288 24.0823 10.0165 23.8386 9.99295ZM99.302 8.60608C99.4391 8.60095 99.6189 8.68247 99.6651 8.68265C99.7722 8.68208 102.24 8.6092 101.298 8.73305C101.147 8.75366 97.575 8.77063 97.108 8.76765C96.9258 8.65469 98.4558 8.73982 98.8299 8.72175C98.8957 8.71841 98.9361 8.62073 99.3008 8.60658C99.3012 8.60641 99.3016 8.60624 99.302 8.60608ZM264.688 6.91578C264.796 6.84193 267.705 6.81842 267.667 6.9083C266.672 6.90937 265.675 6.91192 264.688 6.91578ZM263.202 6.8936C262.592 6.83774 264.024 6.82918 264.471 6.85561C264.479 6.90513 263.272 6.90152 263.202 6.8936ZM228.008 6.72047C227.713 6.74088 228.62 6.84109 228.417 6.86364C228.288 6.87769 227.629 6.84275 227.417 6.87815C227.358 6.88933 228.033 6.98488 228.227 6.97896C228.502 6.9709 228.234 6.8935 228.534 6.89054C229.47 6.88142 230.294 6.92507 231.142 6.92367C231.199 6.92356 231.257 6.92327 231.314 6.92276C231.358 6.92229 231.204 6.90854 231.142 6.89466C231.116 6.88843 231.107 6.88217 231.142 6.87709C231.182 6.87141 231.279 6.86715 231.467 6.86597C231.58 6.86515 232.263 6.94378 233.123 6.92538C234.999 6.65327 236.411 6.89853 238.801 6.79198C238.717 6.76791 236.92 6.71268 236.808 6.71105C235.298 6.68942 233.159 6.69247 231.14 6.70359C230.397 6.70756 229.693 6.71253 229.102 6.71706C228.563 6.72111 228.825 6.77389 228.592 6.77776C228.408 6.78073 228.627 6.67736 228.008 6.72047ZM26.7897 9.96453C26.543 9.86739 25.6687 9.94696 25.0828 9.95202C25.2865 10.04 26.2605 9.95133 26.7897 9.96453ZM250.158 6.78874C249.879 6.79299 248.997 6.76393 248.922 6.79465C248.831 6.83464 250.102 6.85769 250.158 6.78874ZM113.269 8.408C113.296 8.4048 113.977 8.39929 114.003 8.40207C114.613 8.47371 112.57 8.48984 113.269 8.408ZM129.603 8.1688C130.121 8.14819 130.644 8.10834 130.82 8.18793C130.489 8.18047 129.543 8.22707 129.603 8.1688ZM152.137 7.82347C152.028 7.71725 153.588 7.76402 153.882 7.76937C153.774 7.81887 152.216 7.89996 152.137 7.82347ZM260.562 6.63588C261.508 6.64639 261.325 6.48236 261.931 6.55928C262.028 6.57233 262.354 6.91381 261.292 6.78123C261.104 6.7575 261.84 6.67992 260.562 6.63588ZM208.094 7.09555C208.336 7.02154 209.092 7.03434 209.599 7.03451C209.486 7.08871 208.459 7.08639 208.094 7.09555ZM20.9262 9.9628C20.4499 9.87051 18.409 9.98142 18.9175 10.0389C18.9739 10.0466 20.625 9.96431 20.9262 9.9628ZM88.7338 8.83742C89.5736 8.74416 87.8366 8.7485 87.2746 8.83536C87.5383 8.82588 88.6739 8.84364 88.7338 8.83742ZM146.723 7.84556C146.764 7.84169 147.664 7.83584 147.705 7.83914C148.444 7.91086 145.896 7.92787 146.723 7.84556ZM124.232 8.12214C124.557 8.05175 126.685 8.07094 127.165 8.12878C126.705 8.23136 123.835 8.20988 124.232 8.12214ZM256.665 6.67065C257.339 6.6685 257.955 6.69007 258.604 6.72019C258.453 6.77445 256.737 6.7116 256.665 6.67065ZM150.028 7.78933C150.076 7.78905 150.123 7.79457 150.169 7.79455C150.121 7.79294 150.074 7.79098 150.028 7.78933ZM241.474 6.65752C240.899 6.63847 241.018 6.7386 241.054 6.7415C241.488 6.77204 242.121 6.67908 241.474 6.65752ZM26.1524 9.82627C25.9705 9.73862 24.9657 9.82673 24.426 9.81461C24.5776 9.88369 25.7122 9.84353 26.1524 9.82627ZM195.014 7.17086C194.294 7.08123 197.217 6.93083 197.824 6.98705C197.873 7.04723 195.123 7.18292 195.014 7.17086ZM86.0904 8.74524C86.031 8.67504 84.8064 8.78141 85.0675 8.81068C85.2321 8.82932 86.1252 8.78888 86.0904 8.74524ZM199.277 7.01103C199.542 6.98613 200.193 7.0486 199.965 7.09412C199.671 7.15249 199.207 7.01809 199.277 7.01103ZM223.834 6.69268C223.716 6.68279 222.095 6.77061 222.766 6.8371C223.232 6.88331 223.304 6.77978 223.413 6.77849C223.539 6.7776 226.109 6.88082 223.834 6.69268ZM178.71 7.32C179.316 7.28445 180.048 7.30639 180.68 7.29598C180.424 7.3434 178.969 7.37495 178.71 7.32ZM90.8018 8.64775C90.6471 8.62149 86.66 8.67052 88.9259 8.72141C89.0558 8.72425 91.25 8.72748 90.8018 8.64775ZM260.562 6.63588C260.445 6.63458 260.31 6.63063 260.153 6.62298C260.309 6.62637 260.444 6.63175 260.562 6.63588ZM249.777 6.61301C249.997 6.56084 248.893 6.54877 248.558 6.57709C248.459 6.64052 249.751 6.62021 249.777 6.61301ZM180.727 7.22307C181.092 7.18855 181.748 7.21144 182.208 7.20188C182.128 7.2511 180.885 7.26989 180.727 7.22307ZM155.029 7.53031C155.756 7.54827 156.647 7.52208 156.661 7.46295C156.676 7.47194 156.712 7.4812 156.77 7.49016C156.83 7.49902 157.61 7.46024 157.949 7.47543C159.973 7.56517 150.134 7.6601 155.832 7.41013C155.564 7.45018 155.297 7.49024 155.029 7.53031ZM121.338 8.02918C120.924 7.96401 119.772 8.07218 120.072 8.09566C120.28 8.1117 121.752 8.09484 121.338 8.02918ZM137.213 7.73895C137.089 7.72804 135.961 7.79562 135.933 7.83384C136.582 7.86364 137.776 7.78978 137.213 7.73895ZM118.173 7.99549C117.914 7.98879 117.583 8.10973 117.614 8.11428C117.88 8.15225 118.607 8.05296 118.173 7.99549ZM258.603 6.31734C258.195 6.2829 256.997 6.36382 256.731 6.4398C256.681 6.42495 256.549 6.40543 256.304 6.38193C256.304 6.38193 256.305 6.38193 256.306 6.38193C255.916 6.34572 246.072 6.3198 252.711 6.46199C252.92 6.46669 252.638 6.39807 253.481 6.41021C253.537 6.4111 253.565 6.46707 253.735 6.46984C254.104 6.47554 256.267 6.51295 256.68 6.469C256.683 6.47939 256.71 6.4893 256.768 6.49847C257.273 6.5799 258.902 6.34365 258.603 6.31734ZM139.448 7.69447C139.221 7.6772 138.503 7.70788 138.429 7.7584C138.786 7.77714 139.975 7.7348 139.448 7.69447ZM90.6738 8.4472C90.2096 8.41427 89.0439 8.50961 89.3973 8.54411C89.6127 8.56535 91.2078 8.48497 90.6738 8.4472ZM132.252 7.83164C134.903 7.84895 132.884 7.81712 133.289 7.73841C132.943 7.76948 132.597 7.80056 132.252 7.83164ZM270.828 6.59776C270.411 6.5755 270.904 6.43904 271.382 6.52343C271.529 6.55017 271.074 6.61011 270.828 6.59776ZM289.627 7.32553C289.286 7.15781 290.998 7.43235 290.316 7.44003C290.279 7.43834 289.646 7.33185 289.627 7.32553ZM276.555 6.60359C276.267 6.68344 276.105 6.68963 275.291 6.65156C276.484 6.65227 275.389 6.55235 276.555 6.60359ZM156.653 7.45379C156.658 7.45721 156.662 7.45973 156.661 7.46295C156.656 7.45986 156.653 7.45688 156.653 7.45379ZM115.673 8.05788C115.339 7.99011 114.409 8.01039 114.688 8.07952C114.714 8.0859 115.537 8.11406 115.673 8.05788ZM256.731 6.4398C256.774 6.45298 256.752 6.4614 256.68 6.469C256.676 6.45923 256.695 6.45005 256.731 6.4398ZM120.668 7.9187C120.635 7.97375 122.052 7.97252 122.109 7.96522C122.921 7.85778 121.251 7.90615 120.668 7.9187ZM81.3215 8.5267C81.2463 8.53366 81.7312 8.66631 82.0145 8.6064C82.2364 8.55987 81.6005 8.50035 81.3215 8.5267ZM279.291 6.63943C279.712 6.65173 280.377 6.67307 280.477 6.74342C280.19 6.72322 279.266 6.68755 279.291 6.63943ZM288.975 7.16339C288.459 7.1875 287.318 7.08935 286.562 7.0265C286.557 6.91794 288.511 7.13235 288.975 7.16339ZM259.821 6.35998C259.788 6.35555 258.662 6.32093 258.814 6.39074C259.045 6.49291 260.136 6.39878 259.821 6.35998ZM83.4976 8.56493C83.9969 8.50886 82.843 8.38156 82.3211 8.50358C82.052 8.56608 83.4123 8.57434 83.4976 8.56493ZM112.771 8.00872C112.11 8.05943 113.75 8.10448 113.978 8.02839C113.673 8.02747 113.005 7.99076 112.771 8.00872ZM135.344 7.57969C133.249 7.40311 134.394 7.76655 134.764 7.72732C134.817 7.72173 135.395 7.58381 135.344 7.57969ZM15.7144 9.63794C15.4063 9.67248 16.561 9.75697 16.6784 9.68566C16.7778 9.64056 15.9037 9.61604 15.7144 9.63794ZM166.833 7.24881C166.745 7.25072 166.657 7.25265 166.571 7.25447C166.636 7.25014 166.721 7.24782 166.833 7.24881ZM106.742 7.8263C108.213 8.09739 108.057 7.8726 108.184 7.87177C108.46 7.87047 109.104 7.93981 109.626 7.91829C109.028 7.96115 108.432 8.004 107.838 8.04685C108.301 8.06058 112.423 8.10262 112.495 8.05368C112.617 7.9836 111.333 8.02566 111.292 8.02032C111.237 8.01265 111.032 7.82659 110.912 7.82133C110.711 7.81302 107.286 7.86451 106.742 7.8263ZM130.974 7.68007C131.31 7.69736 131.407 7.77089 131.562 7.75053C131.615 7.74357 131.623 7.6719 131.804 7.65057C131.527 7.6604 131.251 7.67024 130.974 7.68007ZM104.109 8.13432C103.688 8.05372 105.567 8.05633 105.628 8.06514C105.951 8.11916 104.451 8.20017 104.109 8.13432ZM119.961 7.86644C119.892 7.86241 118.462 7.85787 118.474 7.9062C118.852 7.93716 120.767 7.91751 119.961 7.86644ZM132.028 7.64221C132.532 7.64274 133.485 7.70004 133.374 7.594C133.373 7.59401 133.373 7.59402 133.372 7.59403C132.924 7.61008 132.476 7.62614 132.028 7.64221ZM85.2121 8.30866C84.2744 8.15272 84.7198 8.36212 85.5502 8.40361C85.8004 8.32238 85.3659 8.33401 85.2121 8.30866ZM82.2344 8.23057C81.9874 8.20381 79.2749 8.28324 79.693 8.36703C79.8377 8.39695 81.3885 8.28927 81.4618 8.29432C81.5705 8.30181 81.0764 8.41056 81.9053 8.37674C81.8572 8.34351 82.3225 8.23941 82.2344 8.23057ZM84.4368 8.21174C83.5084 8.09676 83.306 8.34088 84.0009 8.3299C84.2728 8.32577 84.5694 8.22835 84.4368 8.21174ZM88.2395 8.16878C87.9129 8.15138 87.0152 8.13304 86.398 8.22341C87.2284 8.21638 88.0477 8.20957 88.8604 8.20288C88.9536 8.15597 88.5293 8.18401 88.2372 8.16881C88.238 8.1688 88.2387 8.16879 88.2395 8.16878ZM294.466 7.17886C294.16 7.09981 294.389 7.10543 294.636 7.13578C294.91 7.17459 294.896 7.18595 294.908 7.19708C294.909 7.22889 294.881 7.24285 294.848 7.24987C294.815 7.25242 294.596 7.21302 294.466 7.17886ZM9.93179 7.55568C9.73897 7.53201 9.57441 7.44549 9.1281 7.50065C9.58803 7.55824 10.0469 7.6159 10.4913 7.67386C10.8412 7.51601 10.1408 7.58184 9.93179 7.55568ZM8.17962 7.03477C8.24274 7.02993 7.89052 6.80359 8.72649 6.94352C9.30332 7.03768 6.25636 7.19688 5.69878 7.10479C6.29696 7.04513 7.63885 7.07471 8.17962 7.03477ZM2.83981 6.13258C2.79516 6.11464 3.94951 6.06251 4.09431 6.07292C4.8023 6.1274 3.03293 6.22688 2.83981 6.13258ZM6.52927 6.10228C6.0035 6.06709 7.16628 6.01575 7.54397 6.03473C7.603 6.07694 6.58757 6.10772 6.52927 6.10228ZM287.47 3.02712C286.873 2.82402 286.338 3.12954 287.251 3.12494C287.296 3.12494 287.495 3.03672 287.47 3.02712ZM3.96005 5.87348C4.51698 5.90727 3.29859 5.9613 2.94371 5.94363C2.91612 5.90069 3.87881 5.86835 3.96005 5.87348ZM287.073 2.62013C286.308 2.45312 286.549 2.85352 286.649 2.87532C287.04 2.95943 288.44 2.91892 288.741 2.91245C286.636 2.79067 287.455 2.70509 287.073 2.62013ZM283.432 2.64568C282.719 2.65454 284.543 2.81431 284.929 2.73075C284.544 2.71473 283.663 2.6437 283.432 2.64568ZM279.045 2.36669C278.647 2.3412 277.499 2.27888 277.301 2.33461C277.722 2.33344 278.877 2.42341 279.045 2.36669ZM278.153 2.16213C277.564 2.06521 277.413 2.29961 278.1 2.24622C278.126 2.24416 278.174 2.16723 278.153 2.16213ZM274.73 1.99925C274.346 1.89719 273.891 2.11949 274.526 2.13748C274.713 2.14243 274.771 2.01088 274.73 1.99925ZM286.116 2.1448C285.549 2.06945 284.764 2.19033 286.021 2.2818C285.582 2.28035 285.158 2.28199 284.716 2.28441C286.326 2.46352 286.211 2.23371 286.687 2.27298C287.313 2.329 287.279 2.51743 287.132 2.56605C287.632 2.4853 289.749 2.65908 291.046 2.80672C291.116 2.81394 291.183 2.82073 291.247 2.82706C291.184 2.81686 291.117 2.80615 291.047 2.79493C289.929 2.60487 288.184 2.3601 287.106 2.2602C286.794 2.22908 286.464 2.2593 286.19 2.23646C285.76 2.2004 286.148 2.14947 286.118 2.14494C286.118 2.14489 286.117 2.14484 286.116 2.1448ZM270.244 1.92492C269.079 1.80319 269.821 2.04372 270.47 2.01085C270.498 2.00803 270.273 1.9279 270.244 1.92492ZM2.3868 5.20474C3.98234 5.26482 2.81856 5.41705 6.09335 5.15778C4.74666 5.32174 6.01649 5.25843 5.75448 5.31913C5.56363 5.36679 4.72253 5.34688 5.19997 5.42614C4.50993 5.34926 2.14909 5.39589 1.56047 5.4433C1.59115 5.43867 1.58734 5.43937 1.59964 5.43767C1.59288 5.439 1.42001 5.45395 1.20679 5.52981C1.1517 5.54937 1.09184 5.57372 1.03091 5.60287C1.05995 5.58762 0.684281 5.75866 0.43873 6.06238C0.174222 6.36773 0.0618442 6.74662 0.0337665 6.93175C0.00265509 7.1278 0.00899014 7.18894 0.006168 7.215C0.00430109 7.24679 0.00244658 7.24782 0.000672229 7.21402C0.00179469 7.18686 -0.00679956 7.1233 0.0245718 6.92032C0.0523327 6.72862 0.172097 6.33725 0.444109 6.03083C0.574488 5.87947 0.722417 5.76117 0.851723 5.67967C1.02578 5.57542 0.979802 5.60638 1.02745 5.58029C1.08899 5.54915 1.14951 5.5229 1.2052 5.50155C1.31717 5.45873 1.40768 5.43496 1.47658 5.41859C1.7861 5.34706 1.74496 5.33928 1.83669 5.30503C1.96431 5.2475 2.13896 5.19576 2.3868 5.20474ZM279.056 1.76129C278.682 1.46971 278.468 1.9096 277.738 1.65815C276.698 1.96826 280.588 1.73422 281.025 2.04079C276.82 1.87069 283.814 2.41844 280.879 1.89117C283.298 2.13341 281.675 1.86686 282.051 1.82587C282.447 1.78165 283.809 1.90392 283.757 1.79767C283.756 1.79763 283.755 1.7976 283.755 1.79756C282.915 1.76633 282.089 1.74098 281.234 1.71824C282.05 1.97305 280.363 1.8452 279.76 1.6442C279.525 1.68299 279.296 1.72217 279.056 1.76129ZM283.779 2.14478C283.677 2.13288 281.867 2.09019 281.991 2.14167C282.218 2.17534 284.828 2.25868 283.779 2.14478ZM291.834 2.7559C291.604 2.72934 291.339 2.69293 291.064 2.65707C290.57 2.59218 290.066 2.53578 289.823 2.56537C290.193 2.60511 290.658 2.67317 291.056 2.71815C291.388 2.75537 291.668 2.77548 291.834 2.7559ZM258.236 1.64911C257.393 1.71648 259.982 1.74495 259.234 1.65995C259.2 1.65587 258.28 1.6459 258.236 1.64911ZM277.164 1.75446C276.298 1.64839 276.709 1.93104 277.343 1.87502C277.379 1.8717 277.203 1.75932 277.164 1.75446ZM3.66549 5.1426C3.72456 5.07382 5.97133 5.07633 6.40095 5.06788C6.14423 5.13463 3.60387 5.21999 3.66549 5.1426ZM292.991 2.63457C292.398 2.45422 291.702 2.37701 291.101 2.33938C290.439 2.29749 289.853 2.31003 289.763 2.29769C289.569 2.27093 289.885 2.19858 289.841 2.19106C289.732 2.16537 287.646 1.98705 287.548 1.99388C287.477 1.99425 287.836 2.1696 287.409 2.18426C287.962 2.16324 289.877 2.33951 291.082 2.49759C291.686 2.57088 292.131 2.62326 292.198 2.6254C292.347 2.6289 291.25 2.34919 292.989 2.63432C292.989 2.6344 292.99 2.63449 292.991 2.63457ZM289.273 2.21514C289.792 2.32775 288.307 2.19151 287.974 2.14608C287.185 2.03 289.196 2.19339 289.273 2.21514ZM285.774 1.89035C285.587 1.86343 284.121 1.77434 283.993 1.839C284.67 1.95837 286.152 1.94441 285.774 1.89035ZM269.332 1.44101C268.93 1.44497 267.898 1.38097 267.838 1.44078C268.205 1.43554 269.267 1.50044 269.332 1.44101ZM11.4005 4.4691C10.7891 4.42976 12.2002 4.38345 12.6691 4.39919C12.6828 4.43917 11.4402 4.4727 11.4005 4.4691ZM277.032 1.17449C276.81 1.14605 272.16 1.10428 271.53 1.12782C272.144 1.178 276.756 1.2681 276.954 1.2552C277.016 1.25 277.061 1.17807 277.032 1.17449ZM287.106 1.55921C287.571 1.50301 287.811 1.62937 287.881 1.63608C288.414 1.68905 289.548 1.77848 289.291 1.84001C288.316 1.70227 286.251 1.67697 287.106 1.55921ZM269.001 1.0353C267.4 1.05019 270.469 1.17879 270.058 1.08164C270.036 1.07565 269.171 1.03365 269.001 1.0353ZM277.554 1.1612C277.883 1.09078 282.542 1.29667 283.291 1.34031C282.618 1.44381 282.097 1.32213 281.173 1.29642C280.93 1.28997 280.997 1.34743 280.971 1.34659C280.563 1.33536 280.871 1.2821 280.617 1.27268C280.44 1.26231 277.06 1.24776 277.554 1.1612ZM287.367 1.51621C287.623 1.46842 290.626 1.73514 290.725 1.77551C291.614 1.96618 287.592 1.52258 287.367 1.51621ZM277.129 1.0332C277.627 0.889628 279.951 1.05677 278.344 1.08959C278.185 1.09228 277.58 1.00996 277.129 1.0332ZM269.174 0.890781C269.075 0.884764 267.474 0.837068 267.438 0.885968C267.665 0.906449 270.059 0.95059 269.174 0.890781ZM270.029 0.735531C269.989 0.736236 270.372 0.835172 269.606 0.813834C269.543 0.812046 269.419 0.704049 268.444 0.732217C268.254 0.738159 267.956 0.805242 267.977 0.809828C268.975 0.985249 271.983 0.706228 270.029 0.735531ZM287.428 1.43452C287.275 1.37851 287.654 1.27246 288.008 1.36845C288.16 1.41006 287.859 1.46479 287.428 1.43452ZM263.982 0.801074C264.93 0.72653 261.969 0.692511 261.807 0.713132C261.923 0.763581 263.851 0.807709 263.982 0.801074ZM12.8772 3.82012C12.8764 3.82013 12.8757 3.82015 12.875 3.82016C13.6494 3.82443 13.1716 3.90011 13.2071 3.90158C14.9119 3.96933 14.472 3.82543 14.7269 3.80292C15.284 3.75416 15.1844 3.94061 16.1702 3.84641C14.5533 3.98842 16.0196 3.91477 16.0715 3.97955C16.2396 4.24465 13.9494 3.892 13.1577 3.96254C13.0468 3.97232 13.8571 4.04328 13.5764 4.07269C12.704 4.16724 9.78278 3.80642 12.8772 3.82012ZM288.278 1.37884C288.667 1.31604 291.563 1.71636 290.785 1.69549C290.685 1.67921 287.689 1.43474 288.278 1.37884ZM156.822 1.53152C157.497 1.45351 155.929 1.39628 155.642 1.45355C155.499 1.48207 156.523 1.56578 156.822 1.53152ZM145.851 1.40262C145.049 1.42851 144.207 1.72543 145.204 1.66629C145.31 1.65987 145.943 1.44065 145.851 1.40262ZM198.525 0.824072C197.692 0.732562 197.744 0.920658 198.355 0.910611C198.57 0.907101 198.552 0.826971 198.525 0.824072ZM166.559 1.27041C166.475 1.265 165.507 1.29078 165.543 1.33365C165.902 1.35456 167.101 1.30796 166.559 1.27041ZM198.789 0.794041C198.299 0.833957 199.141 0.960293 199.75 0.819638C199.434 0.834347 198.842 0.789931 198.789 0.794041ZM275.399 0.57804C274.942 0.646022 273.826 0.601643 273.109 0.603337C273.064 0.501698 274.875 0.58478 275.399 0.57804ZM149.256 1.46589C148.499 1.54794 150.125 1.58163 149.974 1.49036C149.953 1.48558 149.286 1.46243 149.256 1.46589ZM225.556 0.501797C225.013 0.566323 226.736 0.632116 226.262 0.530921C226.239 0.526813 225.586 0.498195 225.556 0.501797ZM233.229 0.476489C232.815 0.459045 230.993 0.478545 231.702 0.531794C231.815 0.539883 233.2 0.531477 233.229 0.476489ZM14.7712 3.72984C14.5443 3.63077 15.836 3.63216 16.0413 3.64653C16.1123 3.65275 15.0506 3.859 14.7712 3.72984ZM193.081 0.874816C192.652 0.893068 191.533 0.882638 191.336 0.939245C191.865 0.921328 193.225 0.980787 193.081 0.874816ZM152.72 1.414C152.057 1.31172 150.926 1.33955 151.208 1.48179C152.457 1.45348 151.052 1.35247 152.72 1.414ZM201.588 0.640104C201.239 0.635664 200.973 0.779431 201.012 0.785587C201.392 0.844116 201.935 0.690729 201.588 0.640104ZM175.496 1.08988C175.473 1.03009 174.367 1.07253 174.515 1.10919C174.564 1.12149 175.511 1.13831 175.496 1.08988ZM260.75 0.382482C260.233 0.325356 261.824 0.278724 262.283 0.345486C262.516 0.438809 260.811 0.388797 260.75 0.382482ZM211.216 0.566624C211.256 0.476983 209.535 0.546079 210.214 0.612618C210.381 0.629289 211.194 0.596663 211.216 0.566624ZM227.907 0.299934C226.746 0.41539 231.631 0.452378 230.347 0.329993C230.262 0.32106 228.016 0.289935 227.907 0.299934ZM235.904 0.30849C235.696 0.298087 235.801 -0.00229327 236.651 0.108109C236.762 0.122418 236.242 0.20478 236.333 0.222347C236.392 0.232199 238.218 0.263628 238.296 0.25632C238.385 0.247883 238.279 0.15243 238.37 0.141158C238.478 0.128489 239.559 0.207012 240.154 0.205019C241.282 0.201039 241.394 0.120754 241.487 0.120031C241.752 0.11829 242.196 0.173048 242.724 0.17078C245.4 0.158247 249.559 0.0805525 251.651 0.249346C249.798 0.182577 247.906 0.258506 246.072 0.286216C246.635 0.117394 243.264 0.424052 245.239 0.224865C244.295 0.267159 236.627 0.338405 235.906 0.308476C235.906 0.308481 235.905 0.308485 235.904 0.30849ZM142.683 1.36645C143.174 1.25667 140.646 1.31807 140.433 1.43971C140.767 1.45103 142.622 1.37896 142.683 1.36645ZM154.345 0.942721C154.579 0.921621 154.799 0.718366 156.03 0.801779C156.031 0.801763 156.032 0.801747 156.033 0.80173C156.393 0.826089 155.984 0.880799 156.05 0.897197C156.074 0.903943 157.199 0.986988 156.266 1.01662C154.847 1.06194 156.13 0.869816 155.373 0.878789C155.281 0.879967 153.849 1.00927 153.932 1.03181C153.941 1.03445 154.372 1.00521 154.443 1.01404C154.713 1.0472 154.583 1.11157 154.621 1.11398C154.746 1.11974 157.009 0.980202 157.344 1.06827C157.448 1.09666 153.73 1.22024 153.584 1.20689C153.492 1.19843 153.528 1.02454 153.433 1.00889C153.384 1.00111 151.886 1.0882 151.691 1.07517C151.634 1.07139 151.591 1.06707 151.559 1.06344C151.787 1.11369 150.429 1.12999 150.469 1.06887C150.492 1.04474 151.428 1.04462 151.461 1.04829C151.476 1.04983 151.489 1.05207 151.501 1.05357C151.307 0.991032 154.469 0.947296 153.785 0.860126C154.7 0.793366 153.657 1.00471 154.345 0.942721ZM158.75 0.771411C158.656 0.791014 158.562 0.810617 158.467 0.830221C160.075 0.762232 161.916 0.823449 163.771 0.7963C164.241 0.789552 163.699 0.685792 164.316 0.707463C164.81 0.724837 165.357 0.820487 165.089 0.847352C165.024 0.854029 164.018 0.800983 163.515 0.815103C162.028 0.856847 162.409 0.947028 162.321 0.950865C162.226 0.954946 161.295 0.901081 160.786 0.911418C159.507 0.937623 158.923 1.00476 157.169 0.95362C158.18 0.875876 157.624 0.747055 158.75 0.771411ZM218.587 0.220304C218.648 0.159503 219.697 0.20272 220.074 0.190309C220.016 0.251176 218.97 0.207685 218.587 0.220304ZM62.0765 2.4472C61.7535 2.55149 64.1714 2.53459 63.533 2.46331C63.3901 2.44751 62.3768 2.44276 62.0765 2.4472ZM72.936 2.32229C73.2573 2.28954 71.9603 2.24041 71.9652 2.31677C71.9669 2.34125 72.8939 2.32655 72.936 2.32229ZM179.498 0.578057C179.559 0.574136 180.446 0.584245 180.473 0.588906C181.063 0.685851 178.142 0.664461 179.498 0.578057ZM86.1412 1.97854C85.0057 2.06223 88.4293 2.03317 87.3815 1.96811C87.3285 1.96497 86.1951 1.97449 86.1412 1.97854ZM90.8524 1.88205C90.5811 1.89001 89.3832 1.87778 89.3686 1.90816C89.3447 1.95718 90.7163 1.96761 90.8524 1.88205ZM201.819 0.264301C201.688 0.154541 203.273 0.220263 203.817 0.199993C203.949 0.309801 202.372 0.243712 201.819 0.264301ZM191.826 0.304082C198.5 0.133275 197.018 0.389158 191.43 0.363275C191.421 0.292 191.406 0.314894 191.826 0.304082ZM200.364 0.212643C200.121 0.286822 199.352 0.274846 198.851 0.275177C198.938 0.224546 199.988 0.22991 200.364 0.212643ZM59.198 2.34368C59.628 2.24623 61.4796 2.32553 61.1484 2.36835C61.0897 2.37737 59.0429 2.39586 59.198 2.34368ZM180.054 0.475369C179.9 0.369181 181.885 0.386809 182.049 0.408702C182.667 0.497148 180.213 0.449295 180.054 0.475369ZM211.276 0.0625067C211.635 -0.0261239 212.65 0.00665289 213.296 0.00100997C213.003 0.0765465 211.833 0.0580212 211.276 0.0625067ZM206.619 0.0473949C206.66 0.0436644 207.566 0.0411556 207.606 0.0446233C208.349 0.119084 205.786 0.126642 206.619 0.0473949ZM11.7434 3.02654C11.7692 3.02333 12.4602 3.0162 12.4886 3.01888C13.1072 3.08905 11.0392 3.10994 11.7434 3.02654Z" fill="#2B7CFF"/>
</svg>
